<svg width="86" height="86" viewBox="0 0 86 86" fill="none" xmlns="http://www.w3.org/2000/svg">
<path d="M35.8334 64.5C42.1937 64.4987 48.3707 62.3694 53.3809 58.4513L69.1333 74.2036L74.2001 69.1368L58.4478 53.3845C62.3679 48.3738 64.4985 42.1953 64.5 35.8333C64.5 20.0272 51.6394 7.16663 35.8334 7.16663C20.0273 7.16663 7.16669 20.0272 7.16669 35.8333C7.16669 51.6394 20.0273 64.5 35.8334 64.5ZM35.8334 14.3333C47.6906 14.3333 57.3334 23.976 57.3334 35.8333C57.3334 47.6905 47.6906 57.3333 35.8334 57.3333C23.9761 57.3333 14.3334 47.6905 14.3334 35.8333C14.3334 23.976 23.9761 14.3333 35.8334 14.3333Z" fill="#9D9D9D"/>
<path d="M40.893 30.7664C42.2511 32.1281 43 33.9269 43 35.8333H50.1667C50.1699 33.95 49.7997 32.0847 49.0776 30.3453C48.3555 28.606 47.2959 27.027 45.9598 25.6996C40.5347 20.2816 31.1284 20.2816 25.7068 25.6996L30.7665 30.7736C33.4898 28.0574 38.184 28.0646 40.893 30.7664Z" fill="#9D9D9D"/>
</svg>
